<?xml version="1.0" standalone="no"?>
<!DOCTYPE svg PUBLIC "-//W3C//DTD SVG 20010904//EN"
 "http://www.w3.org/TR/2001/REC-SVG-20010904/DTD/svg10.dtd">
<svg version="1.0" xmlns="http://www.w3.org/2000/svg"
 width="960.000000pt" height="1280.000000pt" viewBox="0 0 960.000000 1280.000000"
 preserveAspectRatio="xMidYMid meet">

<g transform="translate(0.000000,1280.000000) scale(0.100000,-0.100000)"
fill="#000000" stroke="none">
<path d="M6828 10862 c-16 -2 -28 -7 -28 -12 0 -4 -9 -6 -19 -3 -29 7 -234
-29 -291 -52 -19 -7 -47 -16 -62 -19 -16 -4 -28 -13 -28 -22 0 -8 -4 -12 -10
-9 -5 3 -27 -6 -47 -20 -21 -14 -43 -25 -50 -25 -7 0 -13 -4 -13 -9 0 -5 -12
-14 -27 -20 -16 -6 -59 -33 -98 -61 -38 -27 -77 -50 -86 -50 -9 0 -36 -13 -60
-30 -24 -16 -48 -30 -52 -30 -11 0 -90 -65 -131 -107 -17 -18 -44 -65 -59
-105 -16 -40 -37 -91 -48 -114 -10 -23 -22 -56 -25 -75 -4 -19 -13 -46 -20
-61 -8 -15 -14 -37 -14 -50 0 -13 -7 -42 -15 -66 -21 -59 -43 -200 -49 -307
-4 -98 19 -239 55 -322 14 -33 16 -49 9 -64 -7 -13 -7 -19 0 -19 5 0 10 6 11
13 0 6 5 1 10 -12 5 -13 7 -26 4 -29 -3 -3 -5 0 -5 7 0 7 -5 9 -10 6 -8 -5 -7
-11 1 -21 6 -7 8 -22 4 -31 -4 -10 -9 -69 -11 -132 -3 -104 -23 -206 -44 -221
-3 -3 -12 -26 -19 -52 -16 -56 -50 -88 -94 -88 -17 0 -50 -5 -72 -10 -22 -6
-65 -15 -95 -20 -103 -18 -289 -122 -498 -280 -33 -25 -84 -60 -114 -78 -78
-48 -219 -178 -324 -298 -32 -38 -91 -102 -131 -144 -75 -79 -160 -181 -199
-240 -13 -19 -42 -62 -65 -95 -23 -33 -62 -94 -87 -135 -25 -41 -53 -79 -61
-84 -9 -5 -36 -29 -61 -53 -51 -49 -164 -126 -227 -153 -64 -28 -163 -134
-192 -205 -14 -33 -47 -103 -75 -155 -28 -52 -65 -124 -83 -160 -18 -36 -56
-92 -83 -125 -55 -67 -130 -171 -130 -181 0 -4 -16 -33 -36 -65 -54 -89 -87
-178 -74 -194 9 -11 7 -19 -9 -36 -29 -31 -27 -49 6 -49 24 0 25 -1 11 -17
-28 -32 -105 -196 -142 -303 -90 -262 -112 -371 -86 -419 16 -31 19 -199 4
-212 -8 -6 -14 -18 -14 -25 0 -8 -4 -14 -8 -14 -15 0 -62 -108 -82 -188 -27
-106 -25 -139 8 -193 15 -24 31 -49 35 -56 5 -8 -22 -31 -80 -69 -94 -60 -242
-165 -283 -200 -118 -100 -191 -168 -199 -183 -6 -10 -23 -31 -38 -48 -54 -57
-94 -152 -100 -237 l-6 -76 -46 -35 c-62 -45 -121 -111 -121 -132 0 -10 -13
-65 -30 -123 -16 -58 -30 -127 -30 -155 l0 -50 -258 -255 c-142 -140 -310
-305 -373 -365 -63 -61 -138 -139 -168 -173 -30 -34 -72 -74 -93 -88 -21 -15
-35 -30 -32 -35 3 -5 -1 -9 -10 -9 -8 0 -29 -18 -47 -41 -26 -34 -30 -43 -18
-51 11 -8 10 -9 -3 -4 -11 3 -21 -2 -28 -14 -15 -28 -12 -37 5 -14 8 10 15 15
15 11 0 -5 -20 -32 -45 -60 -25 -29 -45 -56 -45 -62 0 -6 -20 -42 -45 -79 -60
-91 -92 -162 -109 -238 -24 -103 -44 -181 -55 -210 -15 -39 -56 -199 -74 -288
-16 -81 -28 -169 -53 -405 -8 -82 -22 -188 -29 -235 -8 -47 -24 -170 -35 -275
-11 -104 -23 -207 -26 -227 l-6 -38 740 0 740 0 7 32 c3 18 10 51 15 73 5 22
19 83 30 135 12 52 35 140 51 195 21 72 32 137 38 235 21 291 29 328 95 424
14 21 26 47 26 57 0 18 48 34 81 28 33 -7 110 14 151 40 68 43 134 148 148
236 15 89 31 136 69 206 38 69 54 83 83 75 32 -8 178 -147 178 -169 0 -10 -24
-51 -53 -90 -55 -74 -94 -137 -165 -267 -23 -41 -50 -80 -60 -87 -21 -12 -82
-97 -82 -114 0 -5 -4 -9 -10 -9 -5 0 -10 -9 -10 -20 0 -11 -4 -20 -10 -20 -5
0 -10 -9 -10 -21 0 -11 -4 -17 -10 -14 -6 4 -10 -5 -10 -19 0 -14 -4 -26 -9
-26 -5 0 -11 -13 -14 -29 -4 -17 -26 -50 -49 -74 -64 -66 -130 -165 -154 -228
-11 -31 -30 -73 -42 -93 -12 -20 -24 -60 -28 -88 -4 -29 -10 -57 -14 -63 -13
-18 -57 -164 -84 -277 l-6 -28 1157 0 1158 0 32 48 c48 74 97 129 155 174 29
23 80 66 112 95 40 36 70 54 95 58 74 12 140 57 246 165 56 58 117 122 135
142 18 21 38 38 44 38 7 0 26 7 42 15 16 8 57 17 89 21 46 5 78 18 135 52 76
46 221 141 230 152 3 3 25 21 50 40 25 19 63 49 85 68 22 19 57 49 78 66 81
67 215 204 247 253 19 28 39 49 45 46 5 -4 7 -3 3 1 -4 5 21 45 55 89 35 45
69 98 77 117 14 34 164 268 195 302 8 10 15 22 15 27 0 5 6 16 13 23 20 20 77
108 77 118 0 5 17 29 38 53 20 24 53 65 72 92 19 26 52 70 72 99 21 28 38 57
38 64 0 6 4 12 9 12 5 0 13 9 16 20 4 11 63 91 132 177 116 145 192 256 197
288 1 7 6 19 12 26 8 12 34 69 65 144 4 11 17 41 28 67 12 26 21 55 21 64 0 9
15 35 33 58 57 70 208 361 268 515 16 42 34 85 39 96 5 11 14 38 21 60 8 30
41 70 133 162 132 134 164 171 184 217 7 17 30 58 51 91 107 170 142 237 192
362 16 40 33 81 38 90 23 41 94 259 113 345 51 233 49 225 93 548 14 107 30
224 35 260 9 63 38 167 79 280 27 72 27 168 0 284 -65 286 -90 372 -175 603
-36 97 -40 140 -24 220 5 26 11 75 14 108 9 118 27 196 52 236 14 22 41 77 61
122 36 80 36 84 34 197 -3 135 -24 315 -51 420 -27 107 -33 196 -32 437 l2
212 -40 48 c-93 114 -182 193 -216 193 -8 0 -31 12 -49 26 -29 22 -33 29 -24
45 5 11 13 57 16 102 5 73 3 88 -17 127 -12 25 -30 54 -39 65 -37 42 -71 115
-71 149 0 43 -17 120 -36 161 -7 17 -13 61 -12 101 1 76 -19 133 -68 201 -13
17 -24 41 -24 53 0 40 -39 96 -134 193 -53 54 -96 102 -96 107 0 6 -6 10 -14
10 -7 0 -19 7 -26 14 -6 8 -37 20 -68 26 -31 7 -79 22 -107 35 -49 23 -136 42
-165 36 -14 -3 -86 11 -150 28 -14 4 -37 5 -52 3z m-454 -1273 c22 0 45 -4 52
-10 9 -8 22 -8 42 -1 15 5 43 7 62 3 35 -6 80 -30 80 -43 0 -11 -93 -26 -132
-21 -26 4 -38 1 -38 -7 0 -10 -3 -10 -15 0 -13 10 -15 9 -15 -9 0 -16 -6 -21
-25 -21 -18 0 -25 -5 -25 -19 0 -10 -7 -24 -15 -31 -10 -8 -12 -17 -6 -29 5
-9 12 -37 16 -62 9 -57 14 -66 45 -70 29 -5 40 -36 14 -41 -15 -2 -10 -11 23
-46 40 -42 40 -42 111 -42 80 0 100 13 46 30 -24 8 -34 17 -30 27 4 9 -4 18
-22 26 -29 13 -37 31 -26 56 4 9 8 21 8 26 1 6 10 9 19 8 13 -1 17 4 12 15 -3
9 -3 13 2 9 4 -5 12 -22 18 -40 15 -46 55 -63 120 -50 39 8 54 8 70 -3 11 -8
27 -14 37 -14 20 0 24 15 8 25 -6 4 -8 10 -6 14 8 12 -37 55 -79 75 -22 10
-48 22 -57 27 -10 5 -24 9 -32 9 -7 0 -19 7 -26 15 -10 11 -9 18 4 30 9 9 21
13 26 10 6 -4 16 -2 23 3 27 21 62 21 109 -1 26 -12 48 -25 48 -29 0 -5 6 -8
14 -8 7 0 56 -45 109 -100 52 -55 99 -100 105 -100 6 0 24 -22 41 -49 43 -71
45 -159 7 -251 -16 -36 -34 -72 -42 -81 -8 -8 -14 -19 -14 -23 0 -13 -51 -74
-121 -145 -36 -36 -75 -80 -87 -98 -15 -21 -38 -37 -71 -48 -29 -9 -52 -24
-59 -38 -17 -36 -25 -61 -23 -71 1 -5 -5 -6 -13 -3 -9 4 -17 -1 -21 -11 -7
-22 -60 -82 -72 -82 -5 0 -15 -11 -21 -25 -6 -14 -18 -25 -27 -25 -8 0 -15 -4
-15 -9 0 -6 -8 -9 -17 -9 -10 1 -46 -6 -81 -15 -78 -21 -139 -21 -172 -1 -14
8 -17 13 -7 10 9 -3 17 -2 17 3 0 5 -18 11 -40 15 -28 4 -46 15 -62 36 -12 17
-29 30 -38 30 -8 0 -23 9 -33 21 -12 13 -24 18 -37 14 -23 -7 -54 43 -40 65 7
12 10 11 16 -3 7 -20 44 -23 44 -3 0 13 10 16 105 35 45 8 125 41 125 50 0 4
-37 12 -81 19 -65 9 -86 17 -105 37 -14 15 -19 27 -12 31 6 4 14 1 18 -6 6 -9
9 -9 15 -1 4 8 11 9 18 3 7 -5 21 -12 31 -16 15 -5 17 -4 7 8 -7 8 -8 16 -4
19 33 21 294 44 367 33 36 -6 46 -11 46 -27 0 -10 6 -20 13 -20 6 -1 24 -3 40
-5 21 -2 27 1 27 15 0 17 32 35 53 32 10 -2 -1 40 -14 54 -13 13 -11 43 4 48
6 2 -3 11 -20 21 -18 9 -33 21 -33 26 0 6 -5 10 -11 10 -13 0 -80 50 -97 72
-7 10 -18 18 -23 18 -5 0 -19 9 -31 20 -26 24 -44 25 -64 6 -18 -19 -18 -42 1
-50 8 -3 12 -12 9 -20 -3 -9 17 -37 55 -74 34 -34 61 -62 61 -65 0 -16 -102
-28 -235 -28 -130 -1 -157 2 -177 16 l-23 17 28 -6 c16 -4 39 0 57 9 25 13 29
20 25 43 -4 25 -2 27 34 28 49 2 110 32 90 45 -26 16 -89 9 -138 -15 l-48 -25
-32 20 c-19 11 -41 17 -54 14 -17 -5 -32 3 -60 30 -47 46 -47 73 -2 124 35 38
44 61 25 61 -12 0 -50 -36 -45 -42 2 -2 -24 -22 -58 -45 -50 -34 -68 -40 -94
-36 -18 3 -33 9 -33 13 0 10 -50 30 -78 33 -32 2 -38 53 -19 178 15 102 47
205 55 181 2 -7 8 -12 13 -12 4 0 24 -15 43 -34 36 -37 83 -54 178 -65 31 -4
64 -13 73 -21 15 -13 20 -11 41 15 13 17 24 37 24 46 0 8 4 19 9 25 9 9 36 85
34 94 -1 3 -3 19 -6 37 -3 17 -21 53 -41 79 -27 36 -36 56 -34 79 2 16 9 30
16 30 7 0 17 7 22 15 5 8 10 12 10 8 0 -4 19 -1 43 6 29 8 56 9 87 3 25 -5 63
-8 84 -8z m977 -606 c13 -16 12 -17 -3 -4 -10 7 -18 15 -18 17 0 8 8 3 21 -13z
m-1337 -295 c-10 -16 -22 -7 -17 13 4 15 8 17 14 8 4 -7 5 -17 3 -21z m-111
-38 c3 -11 1 -20 -4 -20 -5 0 -9 9 -9 20 0 11 2 20 4 20 2 0 6 -9 9 -20z
m-1798 -1710 c-11 -5 -15 -9 -9 -9 6 -1 16 -11 22 -23 9 -19 11 -20 11 -5 1
10 5 16 10 13 18 -11 4 -41 -18 -40 -27 1 -27 -12 0 -19 15 -4 20 -11 16 -21
-4 -9 -1 -17 6 -17 7 -1 -6 -5 -27 -8 -34 -5 -41 -11 -51 -41 -6 -19 -19 -36
-27 -38 -10 -2 -14 -10 -11 -21 3 -11 -1 -18 -11 -18 -8 0 -17 9 -19 19 -3 10
-1 15 5 12 6 -4 8 2 3 17 -5 19 -4 21 4 9 9 -13 11 -12 11 3 0 11 -9 21 -19
24 -11 3 -21 13 -24 23 -5 19 19 63 31 56 4 -2 16 0 27 5 17 6 17 8 3 8 -10 1
-18 6 -18 12 0 6 -7 9 -15 5 -8 -3 -15 -1 -15 5 0 6 -7 3 -16 -5 -21 -21 -34
-20 -34 3 0 15 10 20 52 25 35 5 48 10 38 16 -14 9 15 16 70 18 23 1 23 0 5
-8z m-175 -44 c0 -29 -19 -46 -21 -19 -1 10 -1 21 0 26 0 4 -4 7 -10 7 -7 0
-9 -9 -6 -22 4 -12 1 -29 -6 -37 -9 -12 -9 -13 1 -7 8 5 12 -1 12 -21 0 -22
-2 -25 -10 -13 -7 11 -10 7 -10 -18 0 -31 -1 -32 -17 -17 -9 9 -18 38 -21 65
-4 42 -2 49 17 55 11 3 21 11 21 16 0 5 11 9 25 9 20 0 25 -5 25 -24z m-173
-42 c-3 -3 -12 -4 -19 -1 -8 3 -5 6 6 6 11 1 17 -2 13 -5z m65 -19 c3 -14 1
-28 -3 -31 -5 -3 -9 9 -9 25 0 38 6 40 12 6z m1 -39 c18 2 23 -21 7 -31 -5 -3
-10 -15 -10 -26 0 -11 -5 -17 -10 -14 -13 8 -31 -40 -24 -60 4 -8 1 -22 -5
-29 -9 -11 -9 -15 1 -20 7 -3 -5 -3 -27 1 -54 8 -60 13 -36 30 12 8 21 23 21
34 0 10 6 19 13 20 10 0 10 2 0 6 -7 2 -13 9 -13 14 0 4 7 6 15 3 8 -4 15 -1
15 5 0 6 -8 11 -17 12 -13 0 -14 2 -4 6 10 4 10 7 1 13 -8 5 -7 9 4 13 10 4
16 1 16 -8 0 -18 9 -19 30 -4 11 8 12 12 3 16 -8 2 -12 20 -12 41 1 37 1 37 8
7 4 -20 12 -30 24 -29z m117 -4 c0 -28 -3 -33 -10 -22 -13 20 -13 73 0 65 6
-3 10 -23 10 -43z m25 3 c1 -19 -2 -35 -7 -35 -4 0 -8 19 -8 42 0 49 12 44 15
-7z m-201 16 c3 -5 0 -11 -7 -14 -8 -3 -14 1 -14 9 0 16 13 19 21 5z m1986
-33 c0 -4 -4 -8 -9 -8 -6 0 -12 4 -15 8 -3 5 1 9 9 9 8 0 15 -4 15 -9z m-1893
-40 c-3 -8 -6 -5 -6 6 -1 11 2 17 5 13 3 -3 4 -12 1 -19z m158 -68 c-10 -17 5
-50 23 -51 18 -1 -24 -12 -92 -24 -36 -6 -39 -5 -26 10 7 9 28 22 47 30 23 10
31 19 27 29 -4 11 0 16 11 16 9 0 13 -5 10 -10z m-272 -97 c-7 -2 -19 -2 -25
0 -7 3 -2 5 12 5 14 0 19 -2 13 -5z m1187 -127 c0 -2 -7 -7 -16 -10 -8 -3 -12
-2 -9 4 6 10 25 14 25 6z m-100 -106 c0 -5 -5 -10 -11 -10 -5 0 -7 5 -4 10 3
6 8 10 11 10 2 0 4 -4 4 -10z m-33 -716 c-3 -3 -12 -4 -19 -1 -8 3 -5 6 6 6
11 1 17 -2 13 -5z m-47 -14 c-8 -5 -19 -10 -25 -10 -5 0 -3 5 5 10 8 5 20 10
25 10 6 0 3 -5 -5 -10z m100 -470 c-8 -5 -22 -9 -30 -9 -10 0 -8 3 5 9 27 12
43 12 25 0z m-1468 -491 c55 -1 188 -39 256 -73 33 -17 61 -40 75 -64 28 -43
87 -199 118 -310 12 -42 32 -110 45 -150 27 -80 24 -122 -7 -122 -11 0 -23
-10 -29 -24 -5 -13 -14 -27 -19 -31 -8 -4 -8 -12 -1 -25 7 -13 7 -21 0 -25
-15 -9 -2 -25 19 -25 30 0 36 -61 11 -110 -24 -47 -34 -50 -54 -12 -8 15 -18
25 -23 22 -12 -7 -42 88 -43 136 0 61 -51 199 -77 208 -21 9 -123 -50 -150
-87 -50 -66 -104 -190 -124 -281 -11 -50 -23 -101 -29 -113 -5 -12 -30 -115
-55 -230 -26 -114 -55 -226 -64 -248 -24 -54 -54 -79 -84 -71 -41 10 -51 -14
-44 -105 3 -45 10 -86 16 -92 6 -6 11 -16 11 -21 0 -25 -29 35 -50 103 l-22
73 28 87 c16 47 29 91 30 96 11 77 17 153 19 265 2 98 9 158 24 217 26 99 27
119 7 101 -8 -7 -13 -15 -11 -16 5 -5 -37 -115 -45 -122 -4 -3 -10 -17 -13
-32 -5 -17 -15 -28 -29 -30 -12 -2 -23 -9 -26 -17 -3 -8 0 -11 7 -7 7 5 11 -2
11 -20 0 -15 8 -54 17 -87 12 -45 14 -66 6 -87 -6 -16 -7 -34 -2 -41 5 -8 9
-24 9 -37 0 -19 -5 -23 -22 -21 -13 2 -29 0 -35 -4 -8 -5 -13 -3 -13 4 0 7 -3
9 -7 6 -7 -8 -73 98 -73 118 0 26 -32 110 -51 134 -24 31 -24 57 2 106 11 22
25 64 30 94 6 29 23 94 38 145 16 50 34 129 41 176 7 47 23 128 36 180 12 53
26 119 30 148 4 29 11 55 15 58 5 3 9 14 9 25 0 11 11 31 25 45 14 14 25 30
25 35 0 6 12 23 28 38 15 15 35 39 46 54 10 15 22 25 26 22 4 -2 20 9 35 25
19 20 35 28 47 24 10 -3 37 -5 60 -5z m151 -948 c-10 -13 -34 -35 -53 -49 -31
-22 -30 -20 8 15 l42 41 0 78 c0 44 4 104 8 134 6 46 7 35 10 -70 2 -107 0
-128 -15 -149z m142 47 c5 -77 12 -113 23 -124 11 -11 12 -18 4 -23 -9 -5 -8
-31 0 -101 14 -109 15 -163 5 -204 -14 -50 -20 -20 -23 116 -2 73 -8 164 -13
203 -13 94 -23 321 -12 276 5 -18 12 -83 16 -143z m30 -8 c3 -5 1 -10 -4 -10
-6 0 -11 5 -11 10 0 6 2 10 4 10 3 0 8 -4 11 -10z m-88 -135 c-13 -11 -36 -29
-51 -40 -15 -11 -39 -30 -54 -42 -37 -31 -38 -22 -2 17 16 18 30 38 30 45 0 8
11 22 24 32 15 12 23 28 22 43 -1 14 5 33 13 43 15 17 16 16 28 -30 12 -46 12
-49 -10 -68z m90 53 c-2 -13 -4 -3 -4 22 0 25 2 35 4 23 2 -13 2 -33 0 -45z
m-287 -47 c0 -14 -29 -21 -36 -9 -4 7 -3 8 4 4 7 -4 12 -2 12 3 0 6 5 11 10
11 6 0 10 -4 10 -9z m228 -32 c3 -12 2 -12 -6 0 -8 11 -10 11 -15 0 -4 -10 -6
-8 -6 4 -1 21 21 18 27 -4z m21 -135 c1 -92 -12 -129 -66 -185 -24 -25 -41
-48 -37 -51 3 -4 -7 -15 -23 -24 -15 -10 -31 -22 -34 -27 -4 -5 -9 -5 -12 0
-4 5 21 34 54 64 86 76 113 148 98 258 -5 35 -6 68 -2 74 11 18 21 -30 22
-109z m-233 -59 c-4 -14 -11 -25 -16 -25 -5 0 -5 13 2 31 12 35 23 31 14 -6z
m424 -67 c-16 -37 -100 -141 -100 -125 0 8 73 158 90 184 14 22 15 22 22 3 5
-12 0 -36 -12 -62z m-75 15 c-26 -37 -26 -38 -19 -8 3 17 13 36 22 42 26 21
25 6 -3 -34z m-265 3 c0 -19 -29 -48 -40 -41 -13 8 10 55 27 55 7 0 13 -6 13
-14z m160 -24 c0 -5 -6 -17 -14 -27 -13 -18 -14 -18 -9 8 5 24 23 39 23 19z
m71 -49 c-12 -20 -14 -14 -5 12 4 9 9 14 11 11 3 -2 0 -13 -6 -23z m-341 -23
c0 -25 -7 -46 -19 -57 -26 -25 -45 -63 -31 -63 6 0 -2 -11 -17 -24 -15 -13
-29 -23 -30 -22 -1 1 9 26 24 55 14 30 26 60 27 68 1 8 7 18 13 21 6 4 15 20
18 35 10 38 15 34 15 -13z m100 20 c0 -5 -5 -10 -11 -10 -5 0 -7 5 -4 10 3 6
8 10 11 10 2 0 4 -4 4 -10z m230 -24 c0 -2 -8 -10 -17 -17 -16 -13 -17 -12 -4
4 13 16 21 21 21 13z m-175 -152 c-61 -57 -148 -127 -120 -96 20 22 180 161
185 161 3 0 -26 -29 -65 -65z m206 39 c-12 -20 -14 -14 -5 12 4 9 9 14 11 11
3 -2 0 -13 -6 -23z m-366 -68 c-95 -88 -124 -106 -56 -33 23 23 41 46 41 50 0
4 8 4 17 1 13 -5 15 -2 10 11 -4 9 -3 15 1 12 5 -3 21 6 38 19 60 49 36 22
-51 -60z m256 29 c7 -8 21 -13 31 -11 11 3 15 1 11 -5 -3 -6 1 -16 9 -22 8 -6
17 -19 21 -28 6 -18 27 -25 27 -9 0 4 11 20 24 34 l25 27 -6 -36 c-4 -27 -1
-38 13 -49 11 -8 25 -12 31 -10 7 2 12 1 12 -3 -4 -24 3 -42 16 -42 7 0 19 8
25 18 8 12 13 13 16 5 3 -7 14 -13 25 -13 10 0 19 -6 20 -12 0 -7 3 -24 6 -38
3 -14 6 -50 6 -80 2 -51 0 -55 -28 -70 -16 -8 -33 -19 -36 -24 -4 -4 -16 -5
-28 -1 -12 3 -21 2 -21 -4 0 -5 -26 -19 -57 -31 -71 -27 -197 -25 -252 3 -37
18 -149 25 -121 7 23 -15 -80 0 -112 16 -15 8 -42 14 -60 15 -18 0 -27 3 -20
6 6 2 10 8 8 12 -5 8 198 61 232 61 13 0 22 6 22 15 0 12 -15 15 -76 15 -60 0
-75 -3 -71 -13 4 -10 -3 -14 -24 -13 -28 1 -42 20 -16 22 28 2 31 5 19 12 -9
6 -5 15 15 35 51 49 76 67 93 67 9 0 25 10 36 22 12 14 14 19 4 14 -15 -9 60
67 95 94 17 13 18 13 11 0 -5 -8 2 -5 15 8 28 26 42 28 60 6z m-357 -75 c-3
-5 -10 -7 -15 -3 -5 3 -7 10 -3 15 3 5 10 7 15 3 5 -3 7 -10 3 -15z m-681 -43
c4 -10 1 -13 -9 -9 -15 6 -19 23 -5 23 5 0 11 -7 14 -14z m-43 -31 c0 -9 -6
-12 -15 -9 -8 4 -15 10 -15 15 0 5 7 9 15 9 8 0 15 -7 15 -15z m30 0 c7 -9 8
-15 2 -15 -5 0 -12 7 -16 15 -3 8 -4 15 -2 15 2 0 9 -7 16 -15z m-28 -47 c-13
-13 -32 -2 -32 18 0 12 4 13 21 3 14 -7 18 -14 11 -21z m1485 -2380 c-3 -8 -6
-5 -6 6 -1 11 2 17 5 13 3 -3 4 -12 1 -19z"/>
<path d="M6305 9580 c3 -5 8 -10 11 -10 2 0 4 5 4 10 0 6 -5 10 -11 10 -5 0
-7 -4 -4 -10z"/>
<path d="M6716 8545 c-4 -13 -2 -14 14 -5 23 13 26 20 6 20 -8 0 -16 -7 -20
-15z"/>
<path d="M3950 6889 c0 -5 5 -7 10 -4 6 3 10 8 10 11 0 2 -4 4 -10 4 -5 0 -10
-5 -10 -11z"/>
<path d="M4060 6880 c0 -5 5 -10 11 -10 5 0 7 5 4 10 -3 6 -8 10 -11 10 -2 0
-4 -4 -4 -10z"/>
<path d="M4078 6828 c5 -5 16 -8 23 -6 8 3 3 7 -10 11 -17 4 -21 3 -13 -5z"/>
<path d="M3991 6814 c0 -11 3 -14 6 -6 3 7 2 16 -1 19 -3 4 -6 -2 -5 -13z"/>
<path d="M3772 3740 c0 -14 2 -19 5 -12 2 6 2 18 0 25 -3 6 -5 1 -5 -13z"/>
<path d="M3612 3640 c0 -14 2 -19 5 -12 2 6 2 18 0 25 -3 6 -5 1 -5 -13z"/>
<path d="M3535 3200 c-3 -5 -1 -10 4 -10 6 0 11 5 11 10 0 6 -2 10 -4 10 -3 0
-8 -4 -11 -10z"/>
</g>
</svg>
